# xmcd
#
# Track frame offsets: 
#        150
#        15631
#        38423
#        60971
#        81955
#        98219
#
# Disc length: 1991 seconds
#
# Revision: 6
# Processed by: cddbd v1.5.2PL0 Copyright (c) Steve Scherf et al.
# Submitted via: ExactAudioCopyFreeDBPlugin 1.0
#
DISCID=3807c506
DTITLE=Bob Dylan / Blonde on Blonde [2010 The Orig Mono Rec CD 2]
DYEAR=1966
DGENRE=Folk-Rock
TTITLE0=Most Likely You Go Your Way and I'll Go Mine
TTITLE1=Temporary Like Achilles
TTITLE2=Absolutely Sweet Marie
TTITLE3=4th Time Around
TTITLE4=Obviously 5 Believers
TTITLE5=Sad Eyed Lady of the Lowlands
EXTD=Recorded at Columbia Recording Studios, Nashville, Tennessee;\nor
EXTD=iginally released May 16, 1966ng\nMichael Brauer 	Mixing\nWayne B
EXTD=utler 	Trombone\nKenneth A. Buttrey 	Drums\nGreg Calbi 	Ster Voca
EXTD=ls\nPaul Griffin 	Piano\nAmy Herot 	Reissue Producer\nGarth Hudso
EXTD=n 	Keyboards, Saxophone\ns\nCharlie McCoy 	Bass, Guitar, Harmonic
EXTD=a (5), Trumpet\nWayne Moss 	Guitar, Vocals\nHargus "Pigry Strzele
EXTD=cki 	Bass\nMark Wilder 	Remixing, Remastering YEAR: 1966
EXTT0=\n
EXTT1=
EXTT2=
EXTT3=
EXTT4=
EXTT5=
PLAYORDER=
.
